<?xml version="1.0" encoding="UTF-8" standalone="no"?>
<svg
   xmlns:dc="http://purl.org/dc/elements/1.1/"
   xmlns:cc="http://creativecommons.org/ns#"
   xmlns:rdf="http://www.w3.org/1999/02/22-rdf-syntax-ns#"
   xmlns:svg="http://www.w3.org/2000/svg"
   xmlns="http://www.w3.org/2000/svg"
   xmlns:xlink="http://www.w3.org/1999/xlink"
   xmlns:sodipodi="http://sodipodi.sourceforge.net/DTD/sodipodi-0.dtd"
   xmlns:inkscape="http://www.inkscape.org/namespaces/inkscape"
   sodipodi:docname="FROST_Logo.svg"
   inkscape:version="1.0 (4035a4fb49, 2020-05-01)"
   id="svg8"
   version="1.1"
   viewBox="0 0 297 210"
   height="210mm"
   width="297mm">
  <defs
     id="defs2">
    <linearGradient
       id="linearGradient962"
       inkscape:collect="always">
      <stop
         id="stop958"
         offset="0"
         style="stop-color:#a5f2ff;stop-opacity:1" />
      <stop
         id="stop960"
         offset="1"
         style="stop-color:#0079aa;stop-opacity:1" />
    </linearGradient>
    <linearGradient
       gradientUnits="userSpaceOnUse"
       y2="154.34814"
       x2="-211.54382"
       y1="136.842"
       x1="-211.54382"
       id="linearGradient968"
       xlink:href="#linearGradient962"
       inkscape:collect="always" />
    <linearGradient
       y2="154.34814"
       x2="-211.54382"
       y1="136.842"
       x1="-211.54382"
       gradientUnits="userSpaceOnUse"
       id="linearGradient1004"
       xlink:href="#linearGradient962"
       inkscape:collect="always" />
    <linearGradient
       y2="154.34814"
       x2="-211.54382"
       y1="136.842"
       x1="-211.54382"
       gradientUnits="userSpaceOnUse"
       id="linearGradient1006"
       xlink:href="#linearGradient962"
       inkscape:collect="always" />
    <linearGradient
       y2="154.34814"
       x2="-211.54382"
       y1="136.842"
       x1="-211.54382"
       gradientUnits="userSpaceOnUse"
       id="linearGradient1008"
       xlink:href="#linearGradient962"
       inkscape:collect="always" />
    <linearGradient
       y2="154.34814"
       x2="-211.54382"
       y1="136.842"
       x1="-211.54382"
       gradientUnits="userSpaceOnUse"
       id="linearGradient1010"
       xlink:href="#linearGradient962"
       inkscape:collect="always" />
    <linearGradient
       y2="154.34814"
       x2="-211.54382"
       y1="136.842"
       x1="-211.54382"
       gradientUnits="userSpaceOnUse"
       id="linearGradient1012"
       xlink:href="#linearGradient962"
       inkscape:collect="always" />
    <linearGradient
       y2="108.82166"
       x2="-171.18613"
       y1="89.711876"
       x1="-171.18613"
       gradientUnits="userSpaceOnUse"
       id="linearGradient1089"
       xlink:href="#linearGradient962"
       inkscape:collect="always" />
    <linearGradient
       y2="108.82166"
       x2="-171.18613"
       y1="89.711876"
       x1="-171.18613"
       gradientUnits="userSpaceOnUse"
       id="linearGradient1101"
       xlink:href="#linearGradient962"
       inkscape:collect="always" />
  </defs>
  <sodipodi:namedview
     inkscape:window-maximized="1"
     inkscape:window-y="393"
     inkscape:window-x="892"
     inkscape:window-height="837"
     inkscape:window-width="1600"
     showgrid="false"
     inkscape:document-rotation="0"
     inkscape:current-layer="layer1"
     inkscape:document-units="mm"
     inkscape:cy="548.61726"
     inkscape:cx="-736.75302"
     inkscape:zoom="1.979899"
     inkscape:pageshadow="2"
     inkscape:pageopacity="0.0"
     borderopacity="1.0"
     bordercolor="#666666"
     pagecolor="#ffffff"
     id="base" />
  <metadata
     id="metadata5">
    <rdf:RDF>
      <cc:Work
         rdf:about="">
        <dc:format>image/svg+xml</dc:format>
        <dc:type
           rdf:resource="http://purl.org/dc/dcmitype/StillImage" />
        <dc:title></dc:title>
      </cc:Work>
    </rdf:RDF>
  </metadata>
  <g
     id="layer1"
     inkscape:groupmode="layer"
     inkscape:label="Layer 1">
    <text
       id="text835"
       y="93.323982"
       x="-246.38557"
       style="font-style:normal;font-weight:normal;font-size:17.7622px;line-height:1.25;font-family:sans-serif;fill:#000000;fill-opacity:1;stroke:none;stroke-width:0.444055"
       xml:space="preserve"><tspan
         style="font-style:normal;font-variant:normal;font-weight:normal;font-stretch:normal;font-family:sans-serif;-inkscape-font-specification:sans-serif;stroke-width:0.444055"
         y="93.323982"
         x="-246.38557"
         id="tspan833"
         sodipodi:role="line"><tspan
   id="tspan859"
   style="font-style:normal;font-variant:normal;font-weight:normal;font-stretch:normal;font-family:'JetBrains Mono';-inkscape-font-specification:'JetBrains Mono'">F</tspan>.<tspan
   id="tspan857"
   style="font-style:normal;font-variant:normal;font-weight:normal;font-stretch:normal;font-family:'JetBrains Weighted Mono';-inkscape-font-specification:'JetBrains Weighted Mono'">R</tspan>.<tspan
   id="tspan853"
   style="font-style:normal;font-variant:normal;font-weight:normal;font-stretch:normal;font-family:'JetBrains Mono';-inkscape-font-specification:'JetBrains Mono'">O</tspan>.<tspan
   id="tspan849"
   style="font-style:normal;font-variant:normal;font-weight:normal;font-stretch:normal;font-family:'JetBrains Weighted Mono';-inkscape-font-specification:'JetBrains Weighted Mono'">S</tspan>.<tspan
   id="tspan847"
   style="font-style:normal;font-variant:normal;font-weight:normal;font-stretch:normal;font-family:'JetBrains Mono';-inkscape-font-specification:'JetBrains Mono'">T</tspan>. Institution</tspan></text>
    <rect
       style="font-style:normal;font-weight:normal;font-size:23.3439px;line-height:1.25;font-family:sans-serif;fill:#398fd7;fill-opacity:1;stroke:#000000;stroke-width:1.3;stroke-linecap:round;stroke-linejoin:round;stroke-miterlimit:4;stroke-dasharray:none;paint-order:fill markers stroke;stroke-opacity:1"
       id="rect902"
       width="218.61836"
       height="34.477768"
       x="-257.96964"
       y="128.78777"
       ry="11.49259" />
    <g
       transform="translate(0,-37.041668)"
       id="g1051">
      <g
         transform="translate(0.75847,0.65813)"
         id="g980"
         style="font-style:normal;font-weight:normal;font-size:23.3439px;line-height:1.25;font-family:sans-serif;fill:#000000;fill-opacity:1;stroke:none;stroke-width:0.7;stroke-miterlimit:4;stroke-dasharray:none">
        <path
           sodipodi:nodetypes="cccccccccccccccc"
           id="path970"
           style="font-style:italic;fill:#000000;fill-opacity:1;stroke-width:0.7;stroke-miterlimit:4;stroke-dasharray:none"
           d="m -236.7073,138.13755 -0.82697,2.50409 -0.82697,-2.50409 h -6.91765 l -1.15124,4.92411 h 7.37476 l -0.44454,1.91493 -0.8457,2.50409 -0.85045,-2.50409 h -5.6672 l -1.90354,8.20684 -1.13983,3.00678 -1.13984,-3.00678 3.92104,-16.97221 h 10.85127 z" />
        <path
           sodipodi:nodetypes="sccssccssccscccccccccsccssccc"
           id="path972"
           style="font-style:italic;fill:#000000;fill-opacity:1;stroke-width:0.7;stroke-miterlimit:4;stroke-dasharray:none"
           d="m -225.98142,140.42863 c 0,-0.40275 -0.0608,-0.7409 -0.18237,-1.01446 -0.12158,-0.28116 -0.30775,-0.52053 -0.55852,-0.7181 -0.28876,-0.23557 -0.64211,-0.39894 -1.06005,-0.49013 -0.41794,-0.0912 -0.93087,-0.13678 -1.53878,-0.13678 h -2.55324 l -1.51599,6.54268 h 2.39366 c 0.7447,0 1.39061,-0.0684 1.93773,-0.20517 0.54712,-0.13678 1.04485,-0.37615 1.49319,-0.7181 0.50153,-0.37995 0.88907,-0.85488 1.16263,-1.4248 0.28116,-0.57752 0.42174,-1.18923 0.42174,-1.83514 z m 2.53045,12.7548 -1.32791,3.00678 -1.32792,-3.00678 -4.46817,-6.78205 h -3.22574 l -1.56158,6.78205 -1.13984,3.00678 -1.13984,-3.00678 3.90965,-16.97221 h 4.62775 c 1.03345,0 1.87313,0.0684 2.51904,0.20518 0.64591,0.12918 1.20823,0.36854 1.68696,0.71809 0.42554,0.31156 0.75989,0.68771 1.00306,1.12844 0.24317,0.44074 0.36475,0.99166 0.36475,1.65277 0,1.4134 -0.44454,2.65582 -1.33361,3.72727 -0.88148,1.06385 -2.04032,1.80475 -3.47651,2.22269 z" />
        <path
           id="path974"
           style="font-style:italic;fill:#000000;fill-opacity:1;stroke-width:0.7;stroke-miterlimit:4;stroke-dasharray:none"
           d="m -204.39287,142.21818 q 0,2.21128 -0.6725,4.26299 -0.66111,2.05171 -1.92633,3.61329 -1.29942,1.60718 -3.12316,2.53044 -1.82374,0.91188 -4.11482,0.91188 -3.03197,0 -4.74173,-1.65277 -1.70976,-1.66417 -1.70976,-4.71893 0,-2.32527 0.68391,-4.34279 0.6839,-2.01751 1.97192,-3.60189 1.25382,-1.52738 3.10036,-2.43926 1.85794,-0.92327 4.06923,-0.92327 3.02057,0 4.74173,1.65277 1.72115,1.64137 1.72115,4.70754 z m -4.31999,6.74784 q 0.95747,-1.29941 1.4476,-2.89519 0.49013,-1.60717 0.49013,-3.5335 0,-2.32527 -1.17403,-3.5677 -1.16264,-1.25382 -3.25994,-1.25382 -1.62997,0 -2.94079,0.7523 -1.31081,0.74089 -2.25688,2.01751 -0.91187,1.25382 -1.402,2.91799 -0.49013,1.65276 -0.49013,3.40812 0,2.34806 1.16263,3.61329 1.17404,1.25382 3.28274,1.25382 1.60717,0 2.91799,-0.7409 1.32221,-0.74089 2.22268,-1.97192 z" />
        <path
           id="path976"
           style="font-style:italic;fill:#000000;fill-opacity:1;stroke-width:0.7;stroke-miterlimit:4;stroke-dasharray:none"
           d="m -197.16629,153.49118 q -1.65277,0 -3.14595,-0.34195 -1.49319,-0.35335 -2.92939,-1.07145 l 0.54712,-2.58743 h 0.15958 q 1.09424,1.03725 2.67862,1.59577 1.59578,0.54712 3.07757,0.54712 2.42785,0 3.71587,-0.95746 1.29942,-0.96886 1.29942,-2.46205 0,-0.78649 -0.46734,-1.31082 -0.45593,-0.52432 -1.34501,-0.77509 -0.74089,-0.20517 -1.76675,-0.38754 -1.01445,-0.19377 -1.93772,-0.41034 -1.78955,-0.39895 -2.76981,-1.36781 -0.98026,-0.96886 -0.98026,-2.40506 0,-2.42786 2.05171,-4.03503 2.06311,-1.61857 5.32304,-1.61857 1.77815,0 3.22575,0.37615 1.45899,0.36474 2.50764,0.86627 l -0.51292,2.42786 h -0.15958 q -0.80929,-0.7409 -2.31387,-1.27662 -1.49319,-0.53572 -3.14596,-0.53572 -2.07451,0 -3.31693,0.91187 -1.23103,0.91187 -1.23103,2.31387 0,0.75229 0.44454,1.32221 0.44454,0.56992 1.58438,0.85488 0.72949,0.17098 1.93772,0.42174 1.20823,0.23937 2.02892,0.45594 1.61857,0.44454 2.45065,1.32221 0.84348,0.87768 0.84348,2.21129 0,1.11704 -0.54712,2.22268 -0.54712,1.10565 -1.52739,1.89214 -1.04865,0.84348 -2.46205,1.32221 -1.402,0.47873 -3.31693,0.47873 z" />
        <path
           sodipodi:nodetypes="cccccccccccccc"
           id="path978"
           style="font-style:italic;fill:#000000;fill-opacity:1;stroke-width:0.7;stroke-miterlimit:4;stroke-dasharray:none"
           d="m -171.48572,138.13755 -0.50658,2.50409 -0.94089,-2.50409 h -4.60507 l -3.47651,15.04588 -1.13984,3.012 -1.13984,-3.012 3.47651,-15.04588 h -4.65759 l -0.92662,2.50409 -0.46834,-2.50409 0.43314,-1.92633 h 14.38477 z" />
      </g>
      <g
         style="font-style:normal;font-weight:normal;font-size:23.3439px;line-height:1.25;font-family:sans-serif;fill:url(#linearGradient968);fill-opacity:1;stroke:none;stroke-width:0.7;stroke-miterlimit:4;stroke-dasharray:none"
         id="g943">
        <path
           d="m -236.7073,138.13755 -0.82697,2.50409 -0.82697,-2.50409 h -6.91765 l -1.15124,4.92411 h 7.37476 l -0.44454,1.91493 -0.8457,2.50409 -0.85045,-2.50409 h -5.6672 l -1.90354,8.20684 -1.13983,3.00678 -1.13984,-3.00678 3.92104,-16.97221 h 10.85127 z"
           style="font-style:italic;fill:url(#linearGradient1004);fill-opacity:1;stroke-width:0.7;stroke-miterlimit:4;stroke-dasharray:none"
           id="path867"
           sodipodi:nodetypes="cccccccccccccccc" />
        <path
           d="m -225.98142,140.42863 c 0,-0.40275 -0.0608,-0.7409 -0.18237,-1.01446 -0.12158,-0.28116 -0.30775,-0.52053 -0.55852,-0.7181 -0.28876,-0.23557 -0.64211,-0.39894 -1.06005,-0.49013 -0.41794,-0.0912 -0.93087,-0.13678 -1.53878,-0.13678 h -2.55324 l -1.51599,6.54268 h 2.39366 c 0.7447,0 1.39061,-0.0684 1.93773,-0.20517 0.54712,-0.13678 1.04485,-0.37615 1.49319,-0.7181 0.50153,-0.37995 0.88907,-0.85488 1.16263,-1.4248 0.28116,-0.57752 0.42174,-1.18923 0.42174,-1.83514 z m 2.53045,12.7548 -1.32791,3.00678 -1.32792,-3.00678 -4.46817,-6.78205 h -3.22574 l -1.56158,6.78205 -1.13984,3.00678 -1.13984,-3.00678 3.90965,-16.97221 h 4.62775 c 1.03345,0 1.87313,0.0684 2.51904,0.20518 0.64591,0.12918 1.20823,0.36854 1.68696,0.71809 0.42554,0.31156 0.75989,0.68771 1.00306,1.12844 0.24317,0.44074 0.36475,0.99166 0.36475,1.65277 0,1.4134 -0.44454,2.65582 -1.33361,3.72727 -0.88148,1.06385 -2.04032,1.80475 -3.47651,2.22269 z"
           style="font-style:italic;fill:url(#linearGradient1006);fill-opacity:1;stroke-width:0.7;stroke-miterlimit:4;stroke-dasharray:none"
           id="path869"
           sodipodi:nodetypes="sccssccssccscccccccccsccssccc" />
        <path
           d="m -204.39287,142.21818 q 0,2.21128 -0.6725,4.26299 -0.66111,2.05171 -1.92633,3.61329 -1.29942,1.60718 -3.12316,2.53044 -1.82374,0.91188 -4.11482,0.91188 -3.03197,0 -4.74173,-1.65277 -1.70976,-1.66417 -1.70976,-4.71893 0,-2.32527 0.68391,-4.34279 0.6839,-2.01751 1.97192,-3.60189 1.25382,-1.52738 3.10036,-2.43926 1.85794,-0.92327 4.06923,-0.92327 3.02057,0 4.74173,1.65277 1.72115,1.64137 1.72115,4.70754 z m -4.31999,6.74784 q 0.95747,-1.29941 1.4476,-2.89519 0.49013,-1.60717 0.49013,-3.5335 0,-2.32527 -1.17403,-3.5677 -1.16264,-1.25382 -3.25994,-1.25382 -1.62997,0 -2.94079,0.7523 -1.31081,0.74089 -2.25688,2.01751 -0.91187,1.25382 -1.402,2.91799 -0.49013,1.65276 -0.49013,3.40812 0,2.34806 1.16263,3.61329 1.17404,1.25382 3.28274,1.25382 1.60717,0 2.91799,-0.7409 1.32221,-0.74089 2.22268,-1.97192 z"
           style="font-style:italic;fill:url(#linearGradient1008);fill-opacity:1;stroke-width:0.7;stroke-miterlimit:4;stroke-dasharray:none"
           id="path871" />
        <path
           d="m -197.16629,153.49118 q -1.65277,0 -3.14595,-0.34195 -1.49319,-0.35335 -2.92939,-1.07145 l 0.54712,-2.58743 h 0.15958 q 1.09424,1.03725 2.67862,1.59577 1.59578,0.54712 3.07757,0.54712 2.42785,0 3.71587,-0.95746 1.29942,-0.96886 1.29942,-2.46205 0,-0.78649 -0.46734,-1.31082 -0.45593,-0.52432 -1.34501,-0.77509 -0.74089,-0.20517 -1.76675,-0.38754 -1.01445,-0.19377 -1.93772,-0.41034 -1.78955,-0.39895 -2.76981,-1.36781 -0.98026,-0.96886 -0.98026,-2.40506 0,-2.42786 2.05171,-4.03503 2.06311,-1.61857 5.32304,-1.61857 1.77815,0 3.22575,0.37615 1.45899,0.36474 2.50764,0.86627 l -0.51292,2.42786 h -0.15958 q -0.80929,-0.7409 -2.31387,-1.27662 -1.49319,-0.53572 -3.14596,-0.53572 -2.07451,0 -3.31693,0.91187 -1.23103,0.91187 -1.23103,2.31387 0,0.75229 0.44454,1.32221 0.44454,0.56992 1.58438,0.85488 0.72949,0.17098 1.93772,0.42174 1.20823,0.23937 2.02892,0.45594 1.61857,0.44454 2.45065,1.32221 0.84348,0.87768 0.84348,2.21129 0,1.11704 -0.54712,2.22268 -0.54712,1.10565 -1.52739,1.89214 -1.04865,0.84348 -2.46205,1.32221 -1.402,0.47873 -3.31693,0.47873 z"
           style="font-style:italic;fill:url(#linearGradient1010);fill-opacity:1;stroke-width:0.7;stroke-miterlimit:4;stroke-dasharray:none"
           id="path873" />
        <path
           d="m -171.48572,138.13755 -0.50658,2.50409 -0.94089,-2.50409 h -4.60507 l -3.47651,15.04588 -1.13984,3.012 -1.13984,-3.012 3.47651,-15.04588 h -4.65759 l -0.92662,2.50409 -0.46834,-2.50409 0.43314,-1.92633 h 14.38477 z"
           style="font-style:italic;fill:url(#linearGradient1012);fill-opacity:1;stroke-width:0.7;stroke-miterlimit:4;stroke-dasharray:none"
           id="path875"
           sodipodi:nodetypes="cccccccccccccc" />
      </g>
    </g>
    <g
       id="g956"
       style="font-style:normal;font-weight:normal;font-size:23.3439px;line-height:1.25;font-family:sans-serif;fill:#000000;fill-opacity:1;stroke:none;stroke-width:0.7;stroke-miterlimit:4;stroke-dasharray:none">
      <path
         id="path877"
         style="stroke-width:0.7;stroke-miterlimit:4;stroke-dasharray:none;fill:#000000;fill-opacity:1"
         d="m -156.99837,153.18343 h -6.70225 v -1.73256 h 2.22269 v -13.50709 h -2.22269 v -1.73256 h 6.70225 v 1.73256 h -2.22268 v 13.50709 h 2.22268 z" />
      <path
         id="path879"
         style="stroke-width:0.7;stroke-miterlimit:4;stroke-dasharray:none;fill:#000000;fill-opacity:1"
         d="m -142.65919,153.18343 h -2.1429 v -7.24938 q 0,-0.87768 -0.10258,-1.64137 -0.10259,-0.77509 -0.37615,-1.20823 -0.28496,-0.47873 -0.82068,-0.7067 -0.53573,-0.23936 -1.39061,-0.23936 -0.87767,0 -1.83514,0.43314 -0.95746,0.43313 -1.83514,1.10564 v 9.50626 h -2.14289 v -12.732 h 2.14289 v 1.4134 q 1.00306,-0.83209 2.07451,-1.29942 1.07145,-0.46733 2.19989,-0.46733 2.06311,0 3.14595,1.24242 1.08285,1.24242 1.08285,3.57909 z" />
      <path
         id="path881"
         style="stroke-width:0.7;stroke-miterlimit:4;stroke-dasharray:none;fill:#000000;fill-opacity:1"
         d="m -129.43706,149.51314 q 0,1.74396 -1.4476,2.861 -1.43619,1.11704 -3.93244,1.11704 -1.4134,0 -2.59883,-0.33055 -1.17404,-0.34195 -1.97193,-0.7409 v -2.40506 h 0.11399 q 1.01446,0.7637 2.25688,1.21963 1.24242,0.44454 2.38226,0.44454 1.4134,0 2.21129,-0.45594 0.79789,-0.45593 0.79789,-1.43619 0,-0.7523 -0.43314,-1.13984 -0.43314,-0.38755 -1.66417,-0.66111 -0.45593,-0.10258 -1.19683,-0.23937 -0.72949,-0.13678 -1.33361,-0.29635 -1.67556,-0.44454 -2.38226,-1.29942 -0.6953,-0.86628 -0.6953,-2.1201 0,-0.78649 0.31915,-1.48179 0.33056,-0.6953 0.99166,-1.24243 0.63831,-0.53572 1.61857,-0.84348 0.99166,-0.31915 2.21129,-0.31915 1.13984,0 2.30247,0.28496 1.17404,0.27356 1.94913,0.6725 v 2.29108 h -0.11398 q -0.82069,-0.60411 -1.99472,-1.01446 -1.17404,-0.42174 -2.30248,-0.42174 -1.17403,0 -1.98332,0.45594 -0.80928,0.44454 -0.80928,1.33361 0,0.78649 0.49013,1.18543 0.47873,0.39895 1.55018,0.64971 0.59272,0.13678 1.32221,0.27356 0.7409,0.13678 1.23103,0.25077 1.49319,0.34195 2.30247,1.17403 0.80929,0.84348 0.80929,2.23408 z" />
      <path
         id="path883"
         style="stroke-width:0.7;stroke-miterlimit:4;stroke-dasharray:none;fill:#000000;fill-opacity:1"
         d="m -119.74843,153.06944 q -0.60412,0.15958 -1.32222,0.26216 -0.7067,0.10259 -1.26522,0.10259 -1.94912,0 -2.96358,-1.04865 -1.01446,-1.04865 -1.01446,-3.36253 v -6.77064 h -1.44759 v -1.80094 h 1.44759 v -3.65889 h 2.1429 v 3.65889 h 4.42258 v 1.80094 h -4.42258 v 5.80178 q 0,1.00306 0.0456,1.57298 0.0456,0.55852 0.31915,1.04865 0.25076,0.45594 0.6839,0.67251 0.44454,0.20517 1.34501,0.20517 0.52433,0 1.09425,-0.14818 0.56992,-0.15958 0.82068,-0.26217 h 0.11399 z" />
      <path
         id="path885"
         style="stroke-width:0.7;stroke-miterlimit:4;stroke-dasharray:none;fill:#000000;fill-opacity:1"
         d="m -114.84712,138.31993 h -2.41646 v -2.22269 h 2.41646 z m -0.13678,14.8635 h -2.1429 v -12.732 h 2.1429 z" />
      <path
         id="path887"
         style="stroke-width:0.7;stroke-miterlimit:4;stroke-dasharray:none;fill:#000000;fill-opacity:1"
         d="m -104.10984,153.06944 q -0.60411,0.15958 -1.32221,0.26216 -0.7067,0.10259 -1.26522,0.10259 -1.94913,0 -2.96358,-1.04865 -1.01446,-1.04865 -1.01446,-3.36253 v -6.77064 h -1.44759 v -1.80094 h 1.44759 v -3.65889 h 2.1429 v 3.65889 h 4.42257 v 1.80094 h -4.42257 v 5.80178 q 0,1.00306 0.0456,1.57298 0.0456,0.55852 0.31916,1.04865 0.25076,0.45594 0.6839,0.67251 0.44454,0.20517 1.34501,0.20517 0.52433,0 1.09424,-0.14818 0.56992,-0.15958 0.82069,-0.26217 h 0.11398 z" />
      <path
         id="path889"
         style="stroke-width:0.7;stroke-miterlimit:4;stroke-dasharray:none;fill:#000000;fill-opacity:1"
         d="m -90.956095,153.18343 h -2.142897 v -1.4134 q -1.082847,0.85487 -2.074507,1.31081 -0.99166,0.45594 -2.188491,0.45594 -2.006116,0 -3.12316,-1.21963 -1.11704,-1.23103 -1.11704,-3.60189 v -8.26383 h 2.142897 v 7.24937 q 0,0.96886 0.09119,1.66417 0.09119,0.6839 0.387545,1.17403 0.307757,0.50153 0.797887,0.7295 0.490131,0.22796 1.424799,0.22796 0.832082,0 1.812344,-0.43313 0.99166,-0.43314 1.846539,-1.10565 v -9.50625 h 2.142897 z" />
      <path
         id="path891"
         style="stroke-width:0.7;stroke-miterlimit:4;stroke-dasharray:none;fill:#000000;fill-opacity:1"
         d="m -80.127629,153.06944 q -0.604115,0.15958 -1.322213,0.26216 -0.706701,0.10259 -1.265222,0.10259 -1.949124,0 -2.963581,-1.04865 -1.014456,-1.04865 -1.014456,-3.36253 v -6.77064 h -1.447596 v -1.80094 h 1.447596 v -3.65889 h 2.142897 v 3.65889 h 4.422575 v 1.80094 h -4.422575 v 5.80178 q 0,1.00306 0.04559,1.57298 0.04559,0.55852 0.319155,1.04865 0.250765,0.45594 0.683904,0.67251 0.444537,0.20517 1.345009,0.20517 0.524326,0 1.094246,-0.14818 0.569919,-0.15958 0.820684,-0.26217 h 0.113984 z" />
      <path
         id="path893"
         style="stroke-width:0.7;stroke-miterlimit:4;stroke-dasharray:none;fill:#000000;fill-opacity:1"
         d="m -75.22632,138.31993 h -2.416459 v -2.22269 h 2.416459 z m -0.136781,14.8635 h -2.142897 v -12.732 h 2.142897 z" />
      <path
         id="path895"
         style="stroke-width:0.7;stroke-miterlimit:4;stroke-dasharray:none;fill:#000000;fill-opacity:1"
         d="m -60.248833,146.82312 q 0,3.11177 -1.595774,4.91271 -1.595775,1.80095 -4.274396,1.80095 -2.701419,0 -4.297193,-1.80095 -1.584376,-1.80094 -1.584376,-4.91271 0,-3.11176 1.584376,-4.9127 1.595774,-1.81234 4.297193,-1.81234 2.678621,0 4.274396,1.81234 1.595774,1.80094 1.595774,4.9127 z m -2.211287,0 q 0,-2.47345 -0.968864,-3.67028 -0.968863,-1.20823 -2.690019,-1.20823 -1.743954,0 -2.712817,1.20823 -0.957465,1.19683 -0.957465,3.67028 0,2.39367 0.968863,3.63609 0.968864,1.23103 2.701419,1.23103 1.709758,0 2.678621,-1.21963 0.980262,-1.23103 0.980262,-3.64749 z" />
      <path
         id="path897"
         style="stroke-width:0.7;stroke-miterlimit:4;stroke-dasharray:none;fill:#000000;fill-opacity:1"
         d="m -46.274408,153.18343 h -2.142897 v -7.24938 q 0,-0.87768 -0.102586,-1.64137 -0.102585,-0.77509 -0.376146,-1.20823 -0.28496,-0.47873 -0.820685,-0.7067 -0.535724,-0.23936 -1.390603,-0.23936 -0.877676,0 -1.835141,0.43314 -0.957464,0.43313 -1.83514,1.10564 v 9.50626 h -2.142897 v -12.732 h 2.142897 v 1.4134 q 1.003058,-0.83209 2.074507,-1.29942 1.071448,-0.46733 2.199889,-0.46733 2.063108,0 3.145955,1.24242 1.082847,1.24242 1.082847,3.57909 z" />
    </g>
    <g
       id="g1109">
      <g
         transform="translate(-41.035755,46.58538)"
         style="font-style:normal;font-weight:normal;font-size:23.3439px;line-height:1.25;font-family:sans-serif;fill:#000000;fill-opacity:1;stroke:none;stroke-width:0.7;stroke-miterlimit:4;stroke-dasharray:none"
         id="g1095">
        <text
           transform="scale(1.0024135,0.99759231)"
           id="text1093"
           y="107.52002"
           x="-209.11667"
           style="font-style:normal;font-weight:normal;font-size:23.0612px;line-height:1.25;font-family:sans-serif;fill:#000000;fill-opacity:1;stroke:none;stroke-width:0.40357"
           xml:space="preserve"><tspan
             style="font-style:italic;fill:#000000;fill-opacity:1;stroke-width:0.40357"
             y="107.52002"
             x="-209.11667"
             id="tspan1091"
             sodipodi:role="line">FROST</tspan></text>
      </g>
      <g
         id="g1075"
         style="font-style:normal;font-weight:normal;font-size:23.3439px;line-height:1.25;font-family:sans-serif;fill:url(#linearGradient1089);fill-opacity:1;stroke:none;stroke-width:0.7;stroke-miterlimit:4;stroke-dasharray:none"
         transform="translate(-41.694046,45.927405)">
        <text
           xml:space="preserve"
           style="font-style:normal;font-weight:normal;font-size:23.0612px;line-height:1.25;font-family:sans-serif;fill:url(#linearGradient1101);fill-opacity:1;stroke:none;stroke-width:0.40357"
           x="-209.11667"
           y="107.52002"
           id="text1079"
           transform="scale(1.0024135,0.99759231)"><tspan
             sodipodi:role="line"
             id="tspan1077"
             x="-209.11667"
             y="107.52002"
             style="font-style:italic;fill:url(#linearGradient1101);fill-opacity:1;stroke-width:0.40357">FROST</tspan></text>
      </g>
    </g>
  </g>
</svg>
